<?xml version="1.0" standalone="no"?>
<!DOCTYPE svg PUBLIC "-//W3C//DTD SVG 1.1//EN" "http://www.w3.org/Graphics/SVG/1.1/DTD/svg11.dtd">
<svg t="1679900957787" class="icon" viewBox="0 0 1024 1024" version="1.1" xmlns="http://www.w3.org/2000/svg"
  p-id="11600" xmlns:xlink="http://www.w3.org/1999/xlink" width="200" height="200">
  <path
    d="M104.488 741.968a234.672 234.672 0 0 0 237.2 126.264 154.024 154.024 0 0 1 97.464 20.96 289.512 289.512 0 0 0 436.888-278.16 153.064 153.064 0 0 1 44.056-123.776 219.04 219.04 0 1 0-373.008-181.68 73.632 73.632 0 0 1-49.736 60.632q-3.2 1.056-6.36 2.192a96.944 96.944 0 0 1-113.624-41.816 156.48 156.48 0 0 0-228.6-39.112 156.32 156.32 0 0 0-53.768 166.176 167.272 167.272 0 0 1-2.472 102.672 233.96 233.96 0 0 0 11.96 185.648z"
    fill="#ABDBF5" opacity=".5" p-id="11601"></path>
  <path
    d="M520 920a8 8 0 0 1-8-8v-8a8 8 0 0 1 16 0v8a8 8 0 0 1-8 8zM520 976a8 8 0 0 1-8-8v-8a8 8 0 0 1 16 0v8a8 8 0 0 1-8 8zM496 944h-8a8 8 0 0 1 0-16h8a8 8 0 0 1 0 16zM552 944h-8a8 8 0 0 1 0-16h8a8 8 0 0 1 0 16zM656 56a8 8 0 0 1-8-8V40a8 8 0 0 1 16 0v8a8 8 0 0 1-8 8zM656 96a8 8 0 0 1-8-8v-8a8 8 0 0 1 16 0v8a8 8 0 0 1-8 8zM640 72h-8a8 8 0 0 1 0-16h8a8 8 0 0 1 0 16zM680 72h-8a8 8 0 0 1 0-16h8a8 8 0 0 1 0 16zM976 496a8 8 0 0 1-8-8v-8a8 8 0 0 1 16 0v8a8 8 0 0 1-8 8zM976 536a8 8 0 0 1-8-8v-8a8 8 0 0 1 16 0v8a8 8 0 0 1-8 8zM960 512h-8a8 8 0 0 1 0-16h8a8 8 0 0 1 0 16zM1000 512h-8a8 8 0 0 1 0-16h8a8 8 0 0 1 0 16zM64 312a24 24 0 1 1 24-24 24.024 24.024 0 0 1-24 24z m0-32a8 8 0 1 0 8 8 8.008 8.008 0 0 0-8-8zM872 912a8 8 0 0 1-8-8v-48a8 8 0 0 1 16 0v48a8 8 0 0 1-8 8z"
    fill="#6E85A1" opacity=".65" p-id="11602"></path>
  <path d="M896 888h-48a8 8 0 0 1 0-16h48a8 8 0 0 1 0 16z" fill="#6E85A1" opacity=".65" p-id="11603"></path>
  <path d="M160.032 144h720.008a32 32 0 0 1 32 32v464H128.032V176a32 32 0 0 1 32-32z" fill="#F2F8FF" p-id="11604">
  </path>
  <path d="M880.04 144H160.032a32 32 0 0 0-32 32v24a32 32 0 0 1 32-32h720.008a32 32 0 0 1 32 32v-24a32 32 0 0 0-32-32z"
    fill="#2C4B75" opacity=".2" p-id="11605"></path>
  <path d="M880.04 144h-84.16l-496 496h612.16V176a32 32 0 0 0-32-32zM761.944 144H728L232 640h33.944l496-496z"
    fill="#FFFFFF" opacity=".75" p-id="11606"></path>
  <path d="M408 720h207.936v96H408z" fill="#EEF6FF" p-id="11607"></path>
  <path
    d="M408.032 784a8 8 0 0 1-8-8v-24a8 8 0 1 1 16 0v24a8 8 0 0 1-8 8zM616.032 800a8 8 0 0 1-8-8v-32a8 8 0 0 1 16 0v32a8 8 0 0 1-8 8z"
    fill="#647FA1" p-id="11608"></path>
  <path d="M408.064 720H616v32H408.064z" fill="#7595B5" opacity=".3" p-id="11609"></path>
  <path
    d="M648.032 824H432a8 8 0 0 1 0-16h216.032a8 8 0 1 1 0 16zM912.04 648a8 8 0 0 1-8-8V471.992a8 8 0 0 1 16 0v168a8 8 0 0 1-8 8zM936 456a8.104 8.104 0 0 1-2.536-0.416 43.008 43.008 0 0 1-29.424-40.84V251.408a8 8 0 1 1 16 0v163.336a27.024 27.024 0 0 0 18.496 25.664A8 8 0 0 1 936 456zM128.024 376a8 8 0 0 1-8-8V176a40.048 40.048 0 0 1 40-40h317.712a8 8 0 0 1 0 16H160.024a24.024 24.024 0 0 0-24 24v192a8 8 0 0 1-8 8z m784.016-148.592a8 8 0 0 1-8-8V176a24.024 24.024 0 0 0-24-24H653.736a8 8 0 0 1 0-16h226.304a40.048 40.048 0 0 1 40 40v43.408a8 8 0 0 1-8 8zM541.736 152h-32a8 8 0 0 1 0-16h32a8 8 0 0 1 0 16z"
    fill="#647FA1" p-id="11610"></path>
  <path d="M128.032 640h784.008v48a32 32 0 0 1-32 32H160.032a32 32 0 0 1-32-32v-48z" fill="#CEE2EE" p-id="11611"></path>
  <path d="M880.04 696H160.032a32 32 0 0 1-32-32v24a32 32 0 0 0 32 32h720.008a32 32 0 0 0 32-32v-24a32 32 0 0 1-32 32z"
    fill="#7595B5" opacity=".3" p-id="11612"></path>
  <path
    d="M312 728H224a8 8 0 0 1 0-16h88a8 8 0 1 1 0 16zM723.16 752a8 8 0 0 1-6.656-12.44A61.776 61.776 0 0 1 768 712h112.04a24.024 24.024 0 0 0 24-24v-48a8 8 0 0 1 16 0v48a40.048 40.048 0 0 1-40 40H768a45.8 45.8 0 0 0-38.176 20.432 8 8 0 0 1-6.664 3.568z"
    fill="#647FA1" p-id="11613"></path>
  <path
    d="M183.112 817.52a18.32 18.32 0 0 1-16.64-10.64A245.496 245.496 0 0 1 594.64 569.36a18.32 18.32 0 1 1-30.608 20.12 208.872 208.872 0 0 0-364.312 202.032 18.32 18.32 0 0 1-16.608 26z"
    fill="#51C7DB" p-id="11614"></path>
  <path
    d="M125.608 722.312a18.32 18.32 0 0 1-18.32-18.32 282.104 282.104 0 0 1 511.232-164.56 18.32 18.32 0 1 1-29.736 21.392A245.472 245.472 0 0 0 143.92 704a18.32 18.32 0 0 1-18.32 18.32z"
    fill="#7FD4E3" p-id="11615"></path>
  <path
    d="M102.04 810.24a18.32 18.32 0 0 1-17.512-12.96 318.776 318.776 0 0 1 553.584-292.6 18.32 18.32 0 0 1-28.576 22.928 282.184 282.184 0 0 0-489.976 258.96 18.336 18.336 0 0 1-17.52 23.672z"
    fill="#CEE2EE" p-id="11616"></path>
  <path
    d="M74.32 602.336a18.32 18.32 0 0 1-17.12-24.848 355.448 355.448 0 0 1 608.032-97.536 18.32 18.32 0 1 1-28.424 23.12A318.824 318.824 0 0 0 91.44 590.528a18.32 18.32 0 0 1-17.112 11.8z"
    fill="#FFE9C2" p-id="11617"></path>
  <path
    d="M76.992 517.16a18.32 18.32 0 0 1-15.28-28.392 392.064 392.064 0 0 1 632.936-30.712 18.32 18.32 0 0 1-28.528 23 355.424 355.424 0 0 0-573.816 27.856 18.296 18.296 0 0 1-15.312 8.248z"
    fill="#FF8080" p-id="11618"></path>
  <path
    d="M199.28 945.44a36.672 36.672 0 0 1-0.184-52.048l470.296-470.296a36.672 36.672 0 0 1 51.696-0.176 36.672 36.672 0 0 1 0.176 52.04L250.96 945.256a36.672 36.672 0 0 1-51.696 0.176z"
    fill="#CEE2EE" p-id="11619"></path>
  <path
    d="M217.2 911.496L687.496 441.2a36.656 36.656 0 0 1 39.176-8.24 20.52 20.52 0 0 0-5.584-10.04 36.672 36.672 0 0 0-51.696 0.176l-470.296 470.296a36.672 36.672 0 0 0 0.176 52.04 20.184 20.184 0 0 0 9.736 5.28 36.632 36.632 0 0 1 8.192-39.216z"
    fill="#FFFFFF" opacity=".3" p-id="11620"></path>
  <path
    d="M581.368 509.824l88.024-86.72a36.672 36.672 0 0 1 51.696-0.184 36.672 36.672 0 0 1 0.176 52.04L633.24 561.688z"
    fill="#EEF6FF" p-id="11621"></path>
  <path
    d="M723.736 426.128a36.296 36.296 0 0 0-2.648-3.2 36.672 36.672 0 0 0-51.696 0.168L582.016 510.472l18.104 18.104L687.496 441.2a36.656 36.656 0 0 1 39.176-8.24 35.96 35.96 0 0 0-2.936-6.832z"
    fill="#FFFFFF" p-id="11622"></path>
  <path
    d="M721.088 422.92a36.304 36.304 0 0 0-16.376-9.184 36.6 36.6 0 0 1-3.744 47.304l-470.296 470.296a36.52 36.52 0 0 1-35.32 9.36 36.568 36.568 0 0 0 3.92 4.736 36.672 36.672 0 0 0 51.696-0.176L721.264 474.96a36.672 36.672 0 0 0-0.176-52.04z"
    fill="#7595B5" opacity=".3" p-id="11623"></path>
  <path
    d="M225.032 964a44.68 44.68 0 0 1-31.592-76.272l55.52-55.504a53.584 53.584 0 0 0 15.312-31.944l1.16-10.536a8 8 0 1 1 15.904 1.744l-1.16 10.536a69.6 69.6 0 0 1-19.904 41.512l-55.52 55.512a28.672 28.672 0 0 0 0.144 40.688 29.368 29.368 0 0 0 40.416-0.136l190.16-190.16a8 8 0 0 1 11.32 11.304l-190.168 190.168a44.384 44.384 0 0 1-31.6 13.088zM318.24 782.24a8 8 0 0 1-5.656-13.648L663.736 417.44a44.672 44.672 0 0 1 62.96-0.216 45.12 45.12 0 0 1 4.784 5.552 8 8 0 0 1-12.928 9.416 28.712 28.712 0 0 0-43.504-3.44L323.904 779.904a7.976 7.976 0 0 1-5.656 2.344z m145.52-41.776a8 8 0 0 1-5.664-13.656l226.28-226.28a8 8 0 0 1 11.312 11.312L469.416 738.12a7.976 7.976 0 0 1-5.656 2.344z m248.896-248.904a8 8 0 0 1-5.656-13.656l8.6-8.592a28.616 28.616 0 0 0 7.544-13.328 8 8 0 1 1 15.528 3.856 44.672 44.672 0 0 1-11.76 20.784l-8.6 8.592a7.976 7.976 0 0 1-5.656 2.344z"
    fill="#647FA1" p-id="11624"></path>
  <path
    d="M632.888 569.344a7.976 7.976 0 0 1-5.656-2.344l-18.136-18.144a8 8 0 0 1 11.312-11.312l18.136 18.144a8 8 0 0 1-5.656 13.656zM672 728H528a8 8 0 0 1 0-16h144a8 8 0 0 1 0 16z"
    fill="#647FA1" p-id="11625"></path>
</svg>